<?xml version="1.0" encoding="utf-8"?>
<svg version="1.1" id="Layer_1" xmlns="http://www.w3.org/2000/svg" xmlns:xlink="http://www.w3.org/1999/xlink" x="0px" y="0px"
	 viewBox="0 0 2570 2570" enable-background="new 0 0 2570 2570" xml:space="preserve">
<linearGradient id="SVGID_1_" gradientUnits="userSpaceOnUse" x1="9.094947e-13" y1="1285" x2="2570" y2="1285">
	<stop  offset="0" style="stop-color:#2864A0"/>
	<stop  offset="0.1321" style="stop-color:#225891"/>
	<stop  offset="0.7202" style="stop-color:#0A2854"/>
	<stop  offset="1" style="stop-color:#00153C"/>
</linearGradient>
<rect x="0" fill="url(#SVGID_1_)" width="2570" height="2570"/>
<g>
	<linearGradient id="SVGID_2_" gradientUnits="userSpaceOnUse" x1="-409.751" y1="865.3782" x2="2112.0378" y2="865.3782">
		<stop  offset="0" style="stop-color:#2864A0"/>
		<stop  offset="0.1321" style="stop-color:#225891"/>
		<stop  offset="0.7202" style="stop-color:#0A2854"/>
		<stop  offset="1" style="stop-color:#00153C"/>
	</linearGradient>
	<path fill="url(#SVGID_2_)" d="M0,1293.805c36.986,4.983,75.62,6.282,115.532,3.933c156.688-9.22,173.908-35.336,394.529-81.505
		c378.111-79.119,505.327,280.537,824.804,447.36c473.434,247.218,996.403-238.635,681.318-720.985
		c-61.967-94.86-163.667-189.57-249.957-263.968c-230.404-198.644-213.697-405.779-252.643-553.854
		c-11.709-44.511-24.255-85.972-39.474-124.228H0V1293.805z"/>
</g>
<g opacity="0.7">
	<path fill="#64A0D2" d="M2349.863,2562.949c-13.573,0-27.171-0.733-40.766-2.333c-91.017-10.697-194.006-76.321-205.595-176.867
		c-5.602-48.588,10.623-96.922,26.311-143.661c17.408-51.869,35.409-105.5,22.272-158.035
		c-21.627-86.467-115.335-131.351-194.557-160.792c-82.603-30.698-176.226-65.491-212.937-146.902
		c-37.924-84.107,5.883-183.348,68.756-237.906c67.832-58.868,159.977-83.717,241.166-100.256
		c14.524-2.958,29.118-5.769,43.727-8.586c70.762-13.634,143.93-27.733,209.31-59.574
		c114.445-55.748,190.621-167.152,189.553-277.21c-0.6-61.975-30.211-125.139-79.208-168.974
		c-42.69-38.194-94.097-56.441-144.713-51.231c-32.661,3.328-64.384,15.517-95.064,27.31
		c-37.724,14.495-76.752,29.421-117.577,27.935c-89.422-3.409-144.08-74.997-201.944-150.794
		c-45.163-59.157-91.864-120.332-157.039-147.789c-114.094-48.084-247.837,26.456-320.984,124.937
		c-44.408,59.783-75.52,129.139-105.606,196.21c-20.205,45.046-41.097,91.617-65.889,135.089
		c-36.581,64.145-115.908,174.621-236.188,193.823c-57.285,9.116-122.483-12.539-166.073-55.265
		c-34.824-34.127-50.753-76.315-44.849-118.792c5.829-41.946,30.727-78.272,54.804-113.407
		c25.657-37.435,52.187-76.146,54.521-120.937c4.464-85.6-80.591-149.813-161.506-173.256c-31.51-9.13-64.656-14.892-96.71-20.473
		c-51.886-9.022-105.539-18.354-153.359-42.201c-96.905-48.333-165.858-155.985-184.447-287.981
		C258.604,226.667,279.352,114.906,300.597,0h3.502c-21.196,114.63-42.008,226.748-25.417,344.545
		c18.432,130.873,86.684,237.557,182.575,285.386c47.37,23.619,100.77,32.91,152.413,41.892
		c32.145,5.594,65.387,11.368,97.078,20.552c82.178,23.807,168.547,89.271,163.987,176.739
		c-2.387,45.764-29.195,84.88-55.122,122.712c-23.852,34.799-48.516,70.788-54.234,111.928c-5.75,41.368,9.824,82.52,43.85,115.861
		c42.837,41.987,106.857,63.312,163.122,54.323c118.861-18.972,197.463-128.52,233.737-192.128
		c24.711-43.324,45.568-89.822,65.739-134.786c30.164-67.239,61.351-136.77,105.985-196.862
		c73.946-99.544,209.362-174.81,325.084-126.053c66.017,27.814,113,89.358,158.435,148.871
		c57.361,75.132,111.539,146.102,199.341,149.443c40.146,1.54,78.811-13.332,116.212-27.706c30.89-11.873,62.83-24.15,95.948-27.524
		c51.606-5.244,103.936,13.251,147.359,52.091c49.706,44.467,79.746,108.586,80.354,171.508
		c1.079,111.363-75.875,224.023-191.488,280.337c-65.788,32.043-139.186,46.188-210.165,59.863
		c-14.598,2.81-29.181,5.62-43.693,8.579c-80.752,16.452-172.367,41.132-239.597,99.477
		c-61.912,53.731-105.106,151.325-67.874,233.9c36.118,80.1,129.027,114.624,210.999,145.086
		c80.013,29.736,174.68,75.152,196.695,163.185c13.383,53.51-4.781,107.632-22.347,159.965
		c-15.569,46.383-31.668,94.346-26.155,142.175c11.387,98.784,112.872,163.293,202.578,173.842
		c97.628,11.49,173.881-22.079,260.502-51.675v3.635C2495.049,2534.776,2434.505,2562.949,2349.863,2562.949z"/>
</g>
<g opacity="0.7">
	<path fill="#64A0D2" d="M338.585,1041.802L237.253,940.47l101.332-101.332L439.917,940.47L338.585,1041.802z M242.661,940.47
		l95.924,95.924l95.924-95.924l-95.924-95.924L242.661,940.47z"/>
</g>
<g opacity="0.7">
	<path fill="#64A0D2" d="M671.02,1596.027l-36.442-36.442c-6.722-6.722-6.722-17.619,0-24.341l36.442-36.442
		c6.722-6.722,17.619-6.722,24.341,0l36.442,36.442c6.722,6.722,6.722,17.619,0,24.341l-36.442,36.442
		C688.639,1602.749,677.742,1602.749,671.02,1596.027z M637.822,1559.585l33.198,33.198c6.721,6.722,17.619,6.722,24.341,0
		l33.198-33.198c6.722-6.722,6.722-17.619,0-24.341l-33.198-33.198c-6.722-6.722-17.619-6.722-24.341,0l-33.198,33.198
		C631.1,1541.966,631.1,1552.864,637.822,1559.585z"/>
</g>
<g opacity="0.7">
	<path fill="#64A0D2" d="M2232.228,1311.69l-68.117-68.117l68.117-68.117l68.117,68.117L2232.228,1311.69z M2169.519,1243.573
		l62.709,62.709l62.709-62.709l-62.709-62.709L2169.519,1243.573z"/>
</g>
<g opacity="0.2">
	<path d="M528.279,0.56c0.179,17.875-0.022,34.937-0.818,51.046c-11.047,223.467-189.575,247.566-308.209,374.967
		C95.667,559.314,189.225,765.227,403.27,781.266c235.058,17.633,407.596-53.594,523.481,172.361
		c31.467,61.356-30.315,105.193,18.808,215.986c74.865,168.85,400.268,349.555,545.627,158.255
		c70.658-92.987,115.567-241.053,308.328-233.788c282.124,10.648,525.257,109.439,640.921-64.227
		c54.989-82.551,82.079-165.099,129.564-240.833V0.56H528.279z"/>
</g>
<g opacity="0.5">
	<path d="M707.153,1241.292c115.254,17.092,214.462,48.219,310.405,78.32c154.574,48.5,288.067,90.393,434.128,53.244
		c159.392-40.533,318.93-174.758,502.073-422.411c25.4-34.344,49.723-67.817,73.244-100.186
		C2209.142,599.617,2342.429,416.201,2570,373.755v-2.532c-80.884,15.315-153.843,48.863-222.439,101.519
		c-113.069,86.794-210.367,220.685-323.03,375.72c-23.517,32.363-47.837,65.83-73.228,100.168
		c-182.701,247.051-341.698,380.912-500.37,421.26c-145.216,36.946-278.327-4.833-432.459-53.19
		c-96.054-30.137-195.379-61.3-310.872-78.428c-283.218-42.01-520.267-17.681-707.601,72.211v3.387
		C186.986,1223.726,423.891,1199.286,707.153,1241.292z"/>
	<path d="M738.291,1268.988c128.459,14.071,239.233,48.517,336.968,78.91c144.515,44.937,269.326,83.757,406.77,48.069
		c149.391-38.771,301.924-165.483,480.03-398.767c19.166-25.118,37.851-49.849,56.169-74.089
		C2202.664,679.006,2348.112,486.513,2570,441.808v-2.723c-73.672,14.923-142.343,46.577-208.655,95.524
		c-120.747,89.122-224.927,227.005-345.556,386.659c-18.315,24.241-36.997,48.965-56.161,74.083
		c-385.227,504.563-594.217,439.563-883.462,349.63c-97.867-30.436-208.791-64.929-337.542-79.03
		C435.818,1232.766,188.166,1272.195,0,1383.135v3.555C187.781,1275.385,435.33,1235.769,738.291,1268.988z"/>
	<path d="M769.427,1296.678c141.886,10.002,258.679,46.387,361.722,78.493c269.283,83.906,463.842,144.514,839.207-331.213
		c13.494-17.121,26.82-34.105,40.007-50.916C2195.584,756.933,2352.221,557.245,2570,508.863v-2.859
		c-67.092,14.937-131.405,44.74-194.854,89.763c-128.59,91.246-239.158,232.191-367.186,395.389
		c-13.187,16.805-26.51,33.789-40.003,50.904c-374.064,474.086-567.781,413.734-835.9,330.193
		c-103.202-32.154-220.173-68.599-362.415-78.618c-324.67-22.9-583,33.744-769.642,168.393v3.77
		C186.188,1330.659,444.463,1273.796,769.427,1296.678z"/>
	<path d="M800.567,1324.374c155.542,4.81,277.237,43.26,384.606,77.187c125.002,39.494,232.957,73.618,354.496,41.696
		c131.303-34.476,270.793-146.501,438.983-352.542c8.485-10.408,16.932-20.786,25.345-31.122
		C2188.442,832.969,2355.082,628.241,2570,575.257v-3.008c-60.993,15.093-120.805,42.985-180.785,83.868
		c-136.495,93.031-258.461,242.892-387.587,401.548c-8.413,10.336-16.859,20.714-25.343,31.116
		c-167.761,205.516-306.745,317.213-437.392,351.521c-120.68,31.688-228.248-2.297-352.799-41.655
		c-107.559-33.986-229.467-72.507-385.431-77.329C450.862,1310.531,181.726,1387.03,0,1548.826v4.105
		C181.148,1390.425,450.281,1313.585,800.567,1324.374z"/>
	<path d="M25.547,1623.636c172.496-176.858,443.726-268.229,806.159-271.572c169.357-1.516,294.849,39.16,405.532,75.097
		c115.658,37.543,215.545,69.966,329.788,40.3c123.2-31.999,256.632-136.857,419.921-329.99l12.759-15.104
		c134.662-159.499,261.857-310.153,405.828-404.252c55.315-36.156,109.837-61.724,164.467-76.814v-2.916
		c-55.14,14.956-109.978,40.465-166.139,77.17c-144.345,94.35-271.679,245.165-406.489,404.836l-12.758,15.111
		c-162.862,192.625-295.798,297.167-418.356,329.005c-113.373,29.444-212.871-2.853-328.077-40.252
		c-110.904-36.009-236.659-76.954-406.502-75.247c-363.277,3.354-635.235,95.03-808.319,272.491
		c-8.136,8.342-15.912,16.752-23.36,25.208v4.628C8.104,1642.04,16.612,1632.797,25.547,1623.636z"/>
	<path d="M23.269,1734.528c106.378-147.976,338.389-329.638,839.578-354.779c183.403-9.25,311.424,34.099,424.378,72.304
		c106.674,36.087,198.806,67.238,306.192,40.02c115.715-29.337,243.399-127.154,401.826-307.838l2.709-3.091
		c133.444-152.29,271.432-309.759,423.074-404.574c50.077-31.312,99.656-54.295,148.974-68.989v-3.208
		c-49.857,14.766-99.974,37.956-150.595,69.607c-152.022,95.054-290.161,252.696-423.753,405.147l-2.708,3.091
		c-158.001,180.201-285.192,277.719-400.279,306.889c-106.513,27.003-198.245-4.022-304.463-39.948
		c-113.209-38.289-241.524-81.632-425.508-72.466c-221.835,11.129-410.047,53.56-559.407,126.121
		c-119.57,58.083-214.654,135.497-282.61,230.084c-7.365,10.251-14.245,20.486-20.678,30.667v5.778
		C7.168,1757.797,14.897,1746.174,23.269,1734.528z"/>
	<path d="M88.096,1764.098c100.61-138.123,322.096-312.123,805.895-356.666c197.443-18.16,326.839,28.079,441.002,68.897
		c98.106,35.079,182.838,65.37,283.831,40.789c108.848-26.49,231.092-117.408,384.71-286.133
		c129.762-142.515,276.836-304.048,436.846-398.63c43.845-25.917,87.005-45.734,129.62-59.493v-3.229
		c-43.125,13.847-86.801,33.864-131.174,60.091c-160.407,94.821-307.645,256.533-437.55,399.209
		c-153.189,168.247-274.947,258.878-383.173,285.214c-100.11,24.384-184.438-5.783-282.081-40.694
		c-114.459-40.932-244.191-87.331-442.311-69.064c-214.069,19.711-395.221,66.176-538.425,138.116
		c-114.647,57.589-205.373,131.534-269.66,219.79C40.098,1824.799,14.444,1885.801,0,1935.863v11.358
		C13.718,1895.639,39.542,1830.752,88.096,1764.098z"/>
</g>
</svg>
